<svg xmlns="http://www.w3.org/2000/svg" width="1400" height="432" font-family="Arial" font-size="8">
<rect x="0.0" y="0.0" width="1400.0" height="432.0" fill="#0b1d27" />
<rect x="-1115.6" y="262.5" width="131.3" height="32.8" fill="rgba(40,170,180,.22)" />
<text x="-1112.625" y="260.5" fill="#6de0dd">basin:fixed 13</text>
<rect x="-787.5" y="262.5" width="700.0" height="120.3" fill="rgba(40,170,180,.22)" />
<text x="-784.5" y="260.5" fill="#6de0dd">gallery:fixed 13</text>
<rect x="-481.3" y="339.1" width="87.5" height="13.1" fill="#0b1d27" stroke="#9be4c7" stroke-dasharray="3 2"/>
<rect x="142.2" y="262.5" width="87.5" height="32.8" fill="rgba(40,170,180,.22)" />
<text x="145.1875" y="260.5" fill="#6de0dd">shaft:low 13</text>
<rect x="142.2" y="122.5" width="87.5" height="172.8" fill="rgba(40,170,180,.22)" />
<text x="145.1875" y="120.49999999999999" fill="#6de0dd">shaft:high 0.2</text>
<rect x="481.3" y="262.5" width="459.4" height="120.3" fill="rgba(40,170,180,.22)" />
<text x="484.25" y="260.5" fill="#6de0dd">long3:fixed 13</text>
<rect x="1181.3" y="350.0" width="503.1" height="32.8" fill="rgba(40,170,180,.22)" />
<text x="1184.25" y="348" fill="#6de0dd">resA:low 21</text>
<rect x="1181.3" y="262.5" width="503.1" height="120.3" fill="rgba(40,170,180,.22)" />
<text x="1184.25" y="260.5" fill="#6de0dd">resA:high 13</text>
<rect x="1684.4" y="350.0" width="503.1" height="32.8" fill="rgba(40,170,180,.22)" />
<text x="1687.375" y="348" fill="#6de0dd">resB:low 21</text>
<rect x="1684.4" y="262.5" width="503.1" height="120.3" fill="rgba(40,170,180,.22)" />
<text x="1687.375" y="260.5" fill="#6de0dd">resB:high 13</text>
<rect x="2362.5" y="262.5" width="875.0" height="120.3" fill="rgba(40,170,180,.22)" />
<text x="2365.5" y="260.5" fill="#6de0dd">maze:fixed 13</text>
<rect x="3478.1" y="262.5" width="218.8" height="120.3" fill="rgba(40,170,180,.22)" />
<text x="3481.125" y="260.5" fill="#6de0dd">approach:fixed 13</text>
<rect x="3806.3" y="378.4" width="262.5" height="4.4" fill="rgba(40,170,180,.22)" />
<text x="3809.25" y="376.4375" fill="#6de0dd">sump:drain 23.6</text>
<rect x="3806.3" y="284.4" width="262.5" height="98.4" fill="rgba(40,170,180,.22)" />
<text x="3809.25" y="282.375" fill="#6de0dd">sump:flood 15</text>
<rect x="-1400.0" y="251.6" width="284.4" height="175.0" fill="#56707c" stroke="#0b1d27" stroke-width=".5"/>
<rect x="-1235.9" y="10.9" width="9.8" height="180.5" fill="#56707c" stroke="#0b1d27" stroke-width=".5"/>
<rect x="-1115.6" y="295.3" width="131.3" height="131.3" fill="#56707c" stroke="#0b1d27" stroke-width=".5"/>
<rect x="-984.4" y="251.6" width="109.4" height="175.0" fill="#56707c" stroke="#0b1d27" stroke-width=".5"/>
<rect x="-1356.3" y="225.3" width="32.8" height="4.4" fill="#e6d27a" stroke="#0b1d27" stroke-width=".5"/>
<rect x="-1301.6" y="201.2" width="38.3" height="4.4" fill="#e6d27a" stroke="#0b1d27" stroke-width=".5"/>
<rect x="-1361.7" y="177.2" width="32.8" height="4.4" fill="#e6d27a" stroke="#0b1d27" stroke-width=".5"/>
<rect x="-935.2" y="229.7" width="32.8" height="4.4" fill="#e6d27a" stroke="#0b1d27" stroke-width=".5"/>
<rect x="-875.0" y="251.6" width="87.5" height="175.0" fill="#56707c" stroke="#0b1d27" stroke-width=".5"/>
<rect x="-787.5" y="382.8" width="700.0" height="43.8" fill="#56707c" stroke="#0b1d27" stroke-width=".5"/>
<rect x="-87.5" y="251.6" width="87.5" height="175.0" fill="#56707c" stroke="#0b1d27" stroke-width=".5"/>
<rect x="-503.1" y="284.4" width="131.3" height="54.7" fill="#8a7f9c" stroke="#0b1d27" stroke-width=".5"/>
<rect x="-656.3" y="317.2" width="16.4" height="65.6" fill="#8a7f9c" stroke="#0b1d27" stroke-width=".5"/>
<rect x="-240.6" y="317.2" width="16.4" height="65.6" fill="#8a7f9c" stroke="#0b1d27" stroke-width=".5"/>
<rect x="-579.7" y="240.6" width="16.4" height="71.1" fill="#8a7f9c" stroke="#0b1d27" stroke-width=".5"/>
<rect x="-306.3" y="240.6" width="16.4" height="71.1" fill="#8a7f9c" stroke="#0b1d27" stroke-width=".5"/>
<rect x="-760.2" y="229.7" width="38.3" height="4.4" fill="#e6d27a" stroke="#0b1d27" stroke-width=".5"/>
<rect x="-689.1" y="212.2" width="38.3" height="4.4" fill="#e6d27a" stroke="#0b1d27" stroke-width=".5"/>
<rect x="-618.0" y="225.3" width="32.8" height="4.4" fill="#e6d27a" stroke="#0b1d27" stroke-width=".5"/>
<rect x="-546.9" y="225.3" width="32.8" height="4.4" fill="#e6d27a" stroke="#0b1d27" stroke-width=".5"/>
<rect x="-475.8" y="207.8" width="43.8" height="4.4" fill="#e6d27a" stroke="#0b1d27" stroke-width=".5"/>
<rect x="-399.2" y="227.5" width="32.8" height="4.4" fill="#e6d27a" stroke="#0b1d27" stroke-width=".5"/>
<rect x="-344.5" y="210.0" width="32.8" height="4.4" fill="#e6d27a" stroke="#0b1d27" stroke-width=".5"/>
<rect x="-262.5" y="225.3" width="38.3" height="4.4" fill="#e6d27a" stroke="#0b1d27" stroke-width=".5"/>
<rect x="-191.4" y="207.8" width="38.3" height="4.4" fill="#e6d27a" stroke="#0b1d27" stroke-width=".5"/>
<rect x="-131.3" y="229.7" width="32.8" height="4.4" fill="#e6d27a" stroke="#0b1d27" stroke-width=".5"/>
<rect x="0.0" y="251.6" width="142.2" height="175.0" fill="#56707c" stroke="#0b1d27" stroke-width=".5"/>
<rect x="142.2" y="295.3" width="98.4" height="131.3" fill="#56707c" stroke="#0b1d27" stroke-width=".5"/>
<rect x="240.6" y="251.6" width="240.6" height="175.0" fill="#56707c" stroke="#0b1d27" stroke-width=".5"/>
<rect x="481.3" y="382.8" width="459.4" height="43.8" fill="#56707c" stroke="#0b1d27" stroke-width=".5"/>
<rect x="940.6" y="251.6" width="109.4" height="175.0" fill="#56707c" stroke="#0b1d27" stroke-width=".5"/>
<rect x="131.3" y="76.6" width="10.9" height="142.2" fill="#5f98a8" stroke="#0b1d27" stroke-width=".5"/>
<rect x="229.7" y="114.8" width="10.9" height="180.5" fill="#5f98a8" stroke="#0b1d27" stroke-width=".5"/>
<rect x="317.2" y="136.7" width="32.8" height="114.8" fill="#8a7f9c" stroke="#0b1d27" stroke-width=".5"/>
<rect x="525.0" y="344.5" width="65.6" height="38.3" fill="#8a7f9c" stroke="#0b1d27" stroke-width=".5"/>
<rect x="678.1" y="328.1" width="87.5" height="54.7" fill="#8a7f9c" stroke="#0b1d27" stroke-width=".5"/>
<rect x="251.6" y="224.2" width="30.6" height="4.4" fill="#e6d27a" stroke="#0b1d27" stroke-width=".5"/>
<rect x="286.6" y="196.9" width="30.6" height="4.4" fill="#e6d27a" stroke="#0b1d27" stroke-width=".5"/>
<rect x="251.6" y="169.5" width="30.6" height="4.4" fill="#e6d27a" stroke="#0b1d27" stroke-width=".5"/>
<rect x="286.6" y="142.2" width="30.6" height="4.4" fill="#e6d27a" stroke="#0b1d27" stroke-width=".5"/>
<rect x="240.6" y="114.8" width="49.2" height="4.4" fill="#e6d27a" stroke="#0b1d27" stroke-width=".5"/>
<rect x="377.3" y="131.3" width="60.2" height="4.4" fill="#e6d27a" stroke="#0b1d27" stroke-width=".5"/>
<rect x="459.4" y="147.7" width="32.8" height="4.4" fill="#e6d27a" stroke="#0b1d27" stroke-width=".5"/>
<rect x="525.0" y="131.3" width="32.8" height="4.4" fill="#e6d27a" stroke="#0b1d27" stroke-width=".5"/>
<rect x="590.6" y="153.1" width="38.3" height="4.4" fill="#e6d27a" stroke="#0b1d27" stroke-width=".5"/>
<rect x="661.7" y="136.7" width="32.8" height="4.4" fill="#e6d27a" stroke="#0b1d27" stroke-width=".5"/>
<rect x="727.3" y="158.6" width="32.8" height="4.4" fill="#e6d27a" stroke="#0b1d27" stroke-width=".5"/>
<rect x="787.5" y="180.5" width="32.8" height="4.4" fill="#e6d27a" stroke="#0b1d27" stroke-width=".5"/>
<rect x="842.2" y="207.8" width="32.8" height="4.4" fill="#e6d27a" stroke="#0b1d27" stroke-width=".5"/>
<rect x="896.9" y="231.9" width="32.8" height="4.4" fill="#e6d27a" stroke="#0b1d27" stroke-width=".5"/>
<rect x="350.0" y="224.2" width="30.6" height="4.4" fill="#e6d27a" stroke="#0b1d27" stroke-width=".5"/>
<rect x="388.3" y="196.9" width="30.6" height="4.4" fill="#e6d27a" stroke="#0b1d27" stroke-width=".5"/>
<rect x="350.0" y="169.5" width="30.6" height="4.4" fill="#e6d27a" stroke="#0b1d27" stroke-width=".5"/>
<rect x="1050.0" y="251.6" width="131.3" height="175.0" fill="#56707c" stroke="#0b1d27" stroke-width=".5"/>
<rect x="1181.3" y="382.8" width="1006.3" height="43.8" fill="#56707c" stroke="#0b1d27" stroke-width=".5"/>
<rect x="2187.5" y="251.6" width="87.5" height="175.0" fill="#56707c" stroke="#0b1d27" stroke-width=".5"/>
<rect x="1662.5" y="229.7" width="43.8" height="109.4" fill="#8a7f9c" stroke="#0b1d27" stroke-width=".5"/>
<rect x="1268.8" y="317.2" width="54.7" height="65.6" fill="#8a7f9c" stroke="#0b1d27" stroke-width=".5"/>
<rect x="1356.3" y="300.8" width="54.7" height="82.0" fill="#8a7f9c" stroke="#0b1d27" stroke-width=".5"/>
<rect x="1443.8" y="322.7" width="54.7" height="60.2" fill="#8a7f9c" stroke="#0b1d27" stroke-width=".5"/>
<rect x="1531.3" y="306.3" width="43.8" height="76.6" fill="#8a7f9c" stroke="#0b1d27" stroke-width=".5"/>
<rect x="1793.8" y="328.1" width="65.6" height="54.7" fill="#8a7f9c" stroke="#0b1d27" stroke-width=".5"/>
<rect x="1903.1" y="311.7" width="65.6" height="71.1" fill="#8a7f9c" stroke="#0b1d27" stroke-width=".5"/>
<rect x="2012.5" y="328.1" width="65.6" height="54.7" fill="#8a7f9c" stroke="#0b1d27" stroke-width=".5"/>
<rect x="1629.7" y="253.8" width="32.8" height="4.4" fill="#e6d27a" stroke="#0b1d27" stroke-width=".5"/>
<rect x="1706.3" y="253.8" width="32.8" height="4.4" fill="#e6d27a" stroke="#0b1d27" stroke-width=".5"/>
<rect x="1181.3" y="356.6" width="32.8" height="4.4" fill="#e6d27a" stroke="#0b1d27" stroke-width=".5"/>
<rect x="1219.5" y="330.3" width="32.8" height="4.4" fill="#e6d27a" stroke="#0b1d27" stroke-width=".5"/>
<rect x="1181.3" y="304.1" width="32.8" height="4.4" fill="#e6d27a" stroke="#0b1d27" stroke-width=".5"/>
<rect x="1219.5" y="277.8" width="32.8" height="4.4" fill="#e6d27a" stroke="#0b1d27" stroke-width=".5"/>
<rect x="1591.4" y="356.6" width="32.8" height="4.4" fill="#e6d27a" stroke="#0b1d27" stroke-width=".5"/>
<rect x="1629.7" y="330.3" width="32.8" height="4.4" fill="#e6d27a" stroke="#0b1d27" stroke-width=".5"/>
<rect x="1591.4" y="304.1" width="32.8" height="4.4" fill="#e6d27a" stroke="#0b1d27" stroke-width=".5"/>
<rect x="1629.7" y="280.0" width="32.8" height="4.4" fill="#e6d27a" stroke="#0b1d27" stroke-width=".5"/>
<rect x="1744.5" y="356.6" width="32.8" height="4.4" fill="#e6d27a" stroke="#0b1d27" stroke-width=".5"/>
<rect x="1706.3" y="330.3" width="32.8" height="4.4" fill="#e6d27a" stroke="#0b1d27" stroke-width=".5"/>
<rect x="1744.5" y="304.1" width="32.8" height="4.4" fill="#e6d27a" stroke="#0b1d27" stroke-width=".5"/>
<rect x="1706.3" y="280.0" width="32.8" height="4.4" fill="#e6d27a" stroke="#0b1d27" stroke-width=".5"/>
<rect x="2154.7" y="356.6" width="32.8" height="4.4" fill="#e6d27a" stroke="#0b1d27" stroke-width=".5"/>
<rect x="2116.4" y="330.3" width="32.8" height="4.4" fill="#e6d27a" stroke="#0b1d27" stroke-width=".5"/>
<rect x="2154.7" y="304.1" width="32.8" height="4.4" fill="#e6d27a" stroke="#0b1d27" stroke-width=".5"/>
<rect x="2116.4" y="277.8" width="32.8" height="4.4" fill="#e6d27a" stroke="#0b1d27" stroke-width=".5"/>
<rect x="1400.0" y="254.8" width="32.8" height="4.4" fill="#e6d27a" stroke="#0b1d27" stroke-width=".5"/>
<rect x="1460.2" y="231.9" width="38.3" height="4.4" fill="#e6d27a" stroke="#0b1d27" stroke-width=".5"/>
<rect x="1848.4" y="254.8" width="32.8" height="4.4" fill="#e6d27a" stroke="#0b1d27" stroke-width=".5"/>
<rect x="1908.6" y="231.9" width="38.3" height="4.4" fill="#e6d27a" stroke="#0b1d27" stroke-width=".5"/>
<rect x="1968.8" y="207.8" width="38.3" height="4.4" fill="#e6d27a" stroke="#0b1d27" stroke-width=".5"/>
<rect x="2275.0" y="251.6" width="87.5" height="175.0" fill="#56707c" stroke="#0b1d27" stroke-width=".5"/>
<rect x="2362.5" y="382.8" width="875.0" height="43.8" fill="#56707c" stroke="#0b1d27" stroke-width=".5"/>
<rect x="3237.5" y="251.6" width="87.5" height="175.0" fill="#56707c" stroke="#0b1d27" stroke-width=".5"/>
<rect x="2450.0" y="235.2" width="153.1" height="60.2" fill="#8a7f9c" stroke="#0b1d27" stroke-width=".5"/>
<rect x="2450.0" y="328.1" width="153.1" height="21.9" fill="#8a7f9c" stroke="#0b1d27" stroke-width=".5"/>
<rect x="2690.6" y="235.2" width="87.5" height="103.9" fill="#8a7f9c" stroke="#0b1d27" stroke-width=".5"/>
<rect x="2810.9" y="306.3" width="76.6" height="76.6" fill="#8a7f9c" stroke="#0b1d27" stroke-width=".5"/>
<rect x="2810.9" y="235.2" width="76.6" height="38.3" fill="#8a7f9c" stroke="#0b1d27" stroke-width=".5"/>
<rect x="2778.1" y="235.2" width="32.8" height="10.9" fill="#8a7f9c" stroke="#0b1d27" stroke-width=".5"/>
<rect x="2975.0" y="235.2" width="175.0" height="54.7" fill="#8a7f9c" stroke="#0b1d27" stroke-width=".5"/>
<rect x="2975.0" y="339.1" width="175.0" height="43.8" fill="#8a7f9c" stroke="#0b1d27" stroke-width=".5"/>
<rect x="2389.8" y="234.1" width="27.3" height="4.4" fill="#e6d27a" stroke="#0b1d27" stroke-width=".5"/>
<rect x="2625.0" y="253.8" width="43.8" height="4.4" fill="#e6d27a" stroke="#0b1d27" stroke-width=".5"/>
<rect x="2909.4" y="253.8" width="43.8" height="4.4" fill="#e6d27a" stroke="#0b1d27" stroke-width=".5"/>
<rect x="3177.3" y="246.1" width="32.8" height="4.4" fill="#e6d27a" stroke="#0b1d27" stroke-width=".5"/>
<rect x="3325.0" y="251.6" width="153.1" height="175.0" fill="#56707c" stroke="#0b1d27" stroke-width=".5"/>
<rect x="3478.1" y="382.8" width="218.8" height="43.8" fill="#56707c" stroke="#0b1d27" stroke-width=".5"/>
<rect x="3696.9" y="251.6" width="109.4" height="175.0" fill="#56707c" stroke="#0b1d27" stroke-width=".5"/>
<rect x="3806.3" y="382.8" width="262.5" height="43.8" fill="#56707c" stroke="#0b1d27" stroke-width=".5"/>
<rect x="4068.8" y="382.8" width="131.3" height="43.8" fill="#56707c" stroke="#0b1d27" stroke-width=".5"/>
<rect x="4090.6" y="54.7" width="109.4" height="284.4" fill="#56707c" stroke="#0b1d27" stroke-width=".5"/>
<rect x="4068.8" y="54.7" width="21.9" height="284.4" fill="#8a7f9c" stroke="#0b1d27" stroke-width=".5"/>
<rect x="3565.6" y="295.3" width="43.8" height="87.5" fill="#8a7f9c" stroke="#0b1d27" stroke-width=".5"/>
<rect x="3904.7" y="262.5" width="65.6" height="13.1" fill="#8a7f9c" stroke="#0b1d27" stroke-width=".5"/>
<rect x="3368.8" y="229.7" width="32.8" height="4.4" fill="#e6d27a" stroke="#0b1d27" stroke-width=".5"/>
<rect x="3500.0" y="227.5" width="32.8" height="4.4" fill="#e6d27a" stroke="#0b1d27" stroke-width=".5"/>
<rect x="3571.1" y="207.8" width="32.8" height="4.4" fill="#e6d27a" stroke="#0b1d27" stroke-width=".5"/>
<rect x="3642.2" y="227.5" width="32.8" height="4.4" fill="#e6d27a" stroke="#0b1d27" stroke-width=".5"/>
<rect x="3844.5" y="258.1" width="32.8" height="4.4" fill="#e6d27a" stroke="#0b1d27" stroke-width=".5"/>
<rect x="3828.1" y="225.3" width="32.8" height="4.4" fill="#e6d27a" stroke="#0b1d27" stroke-width=".5"/>
<rect x="3877.3" y="199.1" width="32.8" height="4.4" fill="#e6d27a" stroke="#0b1d27" stroke-width=".5"/>
<rect x="3932.0" y="175.0" width="32.8" height="4.4" fill="#e6d27a" stroke="#0b1d27" stroke-width=".5"/>
<rect x="3986.7" y="175.0" width="54.7" height="4.4" fill="#e6d27a" stroke="#0b1d27" stroke-width=".5"/>
<rect x="3806.3" y="275.6" width="27.3" height="4.4" fill="#e6d27a" stroke="#0b1d27" stroke-width=".5"/>
<rect x="4041.4" y="275.6" width="27.3" height="4.4" fill="#e6d27a" stroke="#0b1d27" stroke-width=".5"/>
<rect x="3806.3" y="355.5" width="27.3" height="4.4" fill="#e6d27a" stroke="#0b1d27" stroke-width=".5"/>
<rect x="3839.1" y="328.1" width="27.3" height="4.4" fill="#e6d27a" stroke="#0b1d27" stroke-width=".5"/>
<rect x="3806.3" y="301.9" width="27.3" height="4.4" fill="#e6d27a" stroke="#0b1d27" stroke-width=".5"/>
<rect x="4041.4" y="355.5" width="27.3" height="4.4" fill="#e6d27a" stroke="#0b1d27" stroke-width=".5"/>
<rect x="4008.6" y="328.1" width="27.3" height="4.4" fill="#e6d27a" stroke="#0b1d27" stroke-width=".5"/>
<rect x="4041.4" y="301.9" width="27.3" height="4.4" fill="#e6d27a" stroke="#0b1d27" stroke-width=".5"/>
<rect x="-1235.9" y="191.4" width="9.8" height="60.2" fill="#c0563a" />
<rect x="131.3" y="218.8" width="10.9" height="32.8" fill="#c0563a" />
<rect x="4068.8" y="339.1" width="21.9" height="43.8" fill="#c0563a" />
<line x1="142.1875" y1="235.15625" x2="229.6875" y2="235.15625" stroke="#ffc46a" stroke-width="1.5" stroke-dasharray="4 3"/>
<line x1="142.1875" y1="142.1875" x2="229.6875" y2="142.1875" stroke="#ffc46a" stroke-width="1.5" stroke-dasharray="4 3"/>
<line x1="240.625" y1="238.4375" x2="317.1875" y2="238.4375" stroke="#ffc46a" stroke-width="1.5" stroke-dasharray="4 3"/>
<line x1="240.625" y1="131.25" x2="317.1875" y2="131.25" stroke="#ffc46a" stroke-width="1.5" stroke-dasharray="4 3"/>
<line x1="557.8125" y1="65.625" x2="557.8125" y2="378.4375" stroke="#ffc46a" stroke-width="1.5" stroke-dasharray="4 3"/>
<line x1="754.6875" y1="65.625" x2="754.6875" y2="378.4375" stroke="#ffc46a" stroke-width="1.5" stroke-dasharray="4 3"/>
<line x1="1837.5" y1="153.125" x2="1837.5" y2="378.4375" stroke="#ffc46a" stroke-width="1.5" stroke-dasharray="4 3"/>
<line x1="2056.25" y1="153.125" x2="2056.25" y2="378.4375" stroke="#ffc46a" stroke-width="1.5" stroke-dasharray="4 3"/>
<line x1="2471.875" y1="153.125" x2="2471.875" y2="235.15625" stroke="#ffc46a" stroke-width="1.5" stroke-dasharray="4 3"/>
<line x1="2581.25" y1="153.125" x2="2581.25" y2="235.15625" stroke="#ffc46a" stroke-width="1.5" stroke-dasharray="4 3"/>
<line x1="2712.5" y1="153.125" x2="2712.5" y2="235.15625" stroke="#ffc46a" stroke-width="1.5" stroke-dasharray="4 3"/>
<line x1="2865.625" y1="153.125" x2="2865.625" y2="235.15625" stroke="#ffc46a" stroke-width="1.5" stroke-dasharray="4 3"/>
<line x1="3007.8125" y1="153.125" x2="3007.8125" y2="339.0625" stroke="#ffc46a" stroke-width="1.5" stroke-dasharray="4 3"/>
<line x1="3117.1875" y1="153.125" x2="3117.1875" y2="339.0625" stroke="#ffc46a" stroke-width="1.5" stroke-dasharray="4 3"/>
<line x1="3625.78125" y1="164.0625" x2="3625.78125" y2="378.4375" stroke="#ffc46a" stroke-width="1.5" stroke-dasharray="4 3"/>
<line x1="3675" y1="164.0625" x2="3675" y2="378.4375" stroke="#ffc46a" stroke-width="1.5" stroke-dasharray="4 3"/>
<line x1="3844.53125" y1="155.3125" x2="3844.53125" y2="378.4375" stroke="#ff7adf" stroke-width="1.5" stroke-dasharray="4 3"/>
<line x1="4030.46875" y1="155.3125" x2="4030.46875" y2="378.4375" stroke="#ff7adf" stroke-width="1.5" stroke-dasharray="4 3"/>
<line x1="3806.25" y1="207.8125" x2="4068.75" y2="207.8125" stroke="#ff7adf" stroke-width="1.5" stroke-dasharray="4 3"/>
<line x1="3806.25" y1="339.0625" x2="4068.75" y2="339.0625" stroke="#ff7adf" stroke-width="1.5" stroke-dasharray="4 3"/>
<rect x="-614.7" y="284.4" width="8.8" height="98.4" fill="rgba(255,255,255,.35)" />
<circle cx="-610.3125" cy="382.8125" r="4" fill="#ffc46a"/>
<rect x="-371.9" y="307.3" width="65.6" height="8.8" fill="rgba(255,255,255,.35)" />
<circle cx="-371.875" cy="311.71875" r="4" fill="#ffc46a"/>
<rect x="-270.2" y="311.7" width="8.8" height="71.1" fill="rgba(255,255,255,.35)" />
<circle cx="-265.78124999999994" cy="382.8125" r="4" fill="#ffc46a"/>
<rect x="-575.9" y="196.9" width="8.8" height="43.8" fill="rgba(255,255,255,.35)" />
<circle cx="-571.484375" cy="240.625" r="4" fill="#ffc46a"/>
<rect x="-302.4" y="196.9" width="8.8" height="43.8" fill="rgba(255,255,255,.35)" />
<circle cx="-298.046875" cy="240.625" r="4" fill="#ffc46a"/>
<rect x="630.0" y="295.3" width="8.8" height="87.5" fill="rgba(255,255,255,.35)" />
<circle cx="634.375" cy="382.8125" r="4" fill="#ffc46a"/>
<rect x="1335.5" y="284.4" width="8.8" height="98.4" fill="rgba(255,255,255,.35)" />
<circle cx="1339.84375" cy="382.8125" r="4" fill="#ffc46a"/>
<rect x="1986.3" y="295.3" width="8.8" height="87.5" fill="rgba(255,255,255,.35)" />
<circle cx="1990.625" cy="382.8125" r="4" fill="#ffc46a"/>
<rect x="2522.2" y="350.0" width="8.8" height="32.8" fill="rgba(255,255,255,.35)" />
<circle cx="2526.5625" cy="382.8125" r="4" fill="#ffc46a"/>
<rect x="2555.0" y="295.3" width="8.8" height="32.8" fill="rgba(255,255,255,.35)" />
<circle cx="2559.375" cy="295.3125" r="4" fill="#ffc46a"/>
<rect x="2730.0" y="339.1" width="8.8" height="43.8" fill="rgba(255,255,255,.35)" />
<circle cx="2734.375" cy="339.0625" r="4" fill="#ffc46a"/>
<rect x="3523.0" y="262.5" width="8.8" height="120.3" fill="rgba(255,255,255,.35)" />
<circle cx="3527.34375" cy="382.8125" r="4" fill="#ffc46a"/>
<rect x="3809.5" y="367.5" width="98.4" height="8.8" fill="rgba(255,255,255,.35)" />
<circle cx="3809.53125" cy="371.875" r="4" fill="#ffc46a"/>
<rect x="3928.8" y="247.2" width="136.7" height="8.8" fill="rgba(255,255,255,.35)" />
<circle cx="4065.46875" cy="251.5625" r="4" fill="#ffc46a"/>
<rect x="1629.7" y="334.7" width="109.4" height="48.1" fill="none" stroke="#ff9c6a" stroke-dasharray="2 2"/>
<circle cx="1684.375" cy="379.53125000000006" r="4" fill="#ff9c6a"/>
<rect x="3007.8" y="289.8" width="109.4" height="49.2" fill="none" stroke="#ff9c6a" stroke-dasharray="2 2"/>
<circle cx="3062.5" cy="337.96875" r="4" fill="#ff9c6a"/>
<rect x="3888.3" y="328.1" width="98.4" height="54.7" fill="none" stroke="#ff9c6a" stroke-dasharray="2 2"/>
<circle cx="3937.5" cy="380.62499999999994" r="4" fill="#ff9c6a"/>
<circle cx="98.4375" cy="235.15625" r="4.921875" fill="none" stroke="#ffc46a" stroke-width="2"/><text x="95.4375" y="238.15625" fill="#ffc46a">V</text>
<circle cx="214.37499999999994" cy="260.3125" r="4.921875" fill="none" stroke="#ffc46a" stroke-width="2"/><text x="211.37499999999994" y="263.3125" fill="#ffc46a">V</text>
<circle cx="262.5" cy="98.4375" r="4.921875" fill="none" stroke="#ffc46a" stroke-width="2"/><text x="259.5" y="101.4375" fill="#ffc46a">V</text>
<circle cx="1148.4375" cy="235.15625" r="4.921875" fill="none" stroke="#ffc46a" stroke-width="2"/><text x="1145.4375" y="238.15625" fill="#ffc46a">V</text>
<circle cx="1684.375" cy="213.28125" r="4.921875" fill="none" stroke="#ffc46a" stroke-width="2"/><text x="1681.375" y="216.28125" fill="#ffc46a">V</text>
<circle cx="2220.3125" cy="235.15625" r="4.921875" fill="none" stroke="#ffc46a" stroke-width="2"/><text x="2217.3125" y="238.15625" fill="#ffc46a">V</text>
<circle cx="-1339.84375" cy="214.37500000000003" r="3.28125" fill="#fff"/>
<circle cx="-1282.96875" cy="190.31249999999997" r="3.28125" fill="#fff"/>
<circle cx="-1345.3125" cy="166.25" r="3.28125" fill="#fff"/>
<circle cx="-1164.84375" cy="240.625" r="3.28125" fill="#fff"/>
<circle cx="-1137.5" cy="240.625" r="3.28125" fill="#fff"/>
<circle cx="-1071.875" cy="284.375" r="3.28125" fill="#fff"/>
<circle cx="-1022.65625" cy="284.375" r="3.28125" fill="#fff"/>
<circle cx="-918.75" cy="218.75" r="3.28125" fill="#fff"/>
<circle cx="-670.46875" cy="201.24999999999997" r="3.28125" fill="#fff"/>
<circle cx="-453.90625" cy="196.875" r="3.28125" fill="#fff"/>
<circle cx="-328.125" cy="199.0625" r="3.28125" fill="#fff"/>
<circle cx="-172.81249999999997" cy="196.875" r="3.28125" fill="#fff"/>
<circle cx="-721.875" cy="366.40625" r="3.28125" fill="#fff"/>
<circle cx="-535.9375" cy="355.46875" r="3.28125" fill="#fff"/>
<circle cx="-437.5" cy="369.68749999999994" r="3.28125" fill="#fff"/>
<circle cx="-339.0625" cy="358.74999999999994" r="3.28125" fill="#fff"/>
<circle cx="-202.34375" cy="300.78125" r="3.28125" fill="#fff"/>
<circle cx="-153.125" cy="366.40625" r="3.28125" fill="#fff"/>
<circle cx="-437.5" cy="347.8125" r="3.28125" fill="#4fe08a"/>
<circle cx="-109.375" cy="367.5" r="3.28125" fill="#ffb84d"/>
<circle cx="185.9375" cy="196.875" r="3.28125" fill="#fff"/>
<circle cx="185.9375" cy="153.125" r="3.28125" fill="#fff"/>
<circle cx="266.87500000000006" cy="213.28125" r="3.28125" fill="#fff"/>
<circle cx="301.87499999999994" cy="185.9375" r="3.28125" fill="#fff"/>
<circle cx="404.6875" cy="120.3125" r="3.28125" fill="#fff"/>
<circle cx="609.2187499999999" cy="142.1875" r="3.28125" fill="#fff"/>
<circle cx="743.75" cy="147.65625" r="3.28125" fill="#fff"/>
<circle cx="557.8125" cy="333.59375" r="3.28125" fill="#fff"/>
<circle cx="721.875" cy="317.1875" r="3.28125" fill="#fff"/>
<circle cx="278.90625" cy="240.625" r="3.28125" fill="#ffb84d"/>
<circle cx="858.59375" cy="196.875" r="3.28125" fill="#4fe08a"/>
<circle cx="1296.09375" cy="306.25" r="3.28125" fill="#fff"/>
<circle cx="1383.59375" cy="289.84375" r="3.28125" fill="#fff"/>
<circle cx="1514.84375" cy="367.5" r="3.28125" fill="#fff"/>
<circle cx="1479.8437500000002" cy="220.9375" r="3.28125" fill="#fff"/>
<circle cx="1684.375" cy="363.12500000000006" r="3.28125" fill="#fff"/>
<circle cx="1684.375" cy="218.75" r="3.28125" fill="#fff"/>
<circle cx="1826.5625" cy="317.1875" r="3.28125" fill="#fff"/>
<circle cx="1935.9375" cy="300.78125" r="3.28125" fill="#fff"/>
<circle cx="2100" cy="367.5" r="3.28125" fill="#fff"/>
<circle cx="1927.1874999999998" cy="220.9375" r="3.28125" fill="#fff"/>
<circle cx="1979.6875" cy="196.875" r="3.28125" fill="#fff"/>
<circle cx="1997.1875000000002" cy="196.875" r="3.28125" fill="#ffb84d"/>
<circle cx="1471.09375" cy="311.71875" r="3.28125" fill="#4fe08a"/>
<circle cx="2406.25" cy="355.46875" r="3.28125" fill="#fff"/>
<circle cx="2526.5625" cy="311.71875" r="3.28125" fill="#fff"/>
<circle cx="2493.75" cy="367.5" r="3.28125" fill="#fff"/>
<circle cx="2575.78125" cy="367.5" r="3.28125" fill="#fff"/>
<circle cx="2646.875" cy="360.9375" r="3.28125" fill="#fff"/>
<circle cx="2734.375" cy="364.21874999999994" r="3.28125" fill="#fff"/>
<circle cx="2794.53125" cy="306.25" r="3.28125" fill="#fff"/>
<circle cx="2849.21875" cy="289.84375" r="3.28125" fill="#fff"/>
<circle cx="2931.25" cy="355.46875" r="3.28125" fill="#fff"/>
<circle cx="3062.5" cy="313.90625" r="3.28125" fill="#fff"/>
<circle cx="2794.53125" cy="257.03125" r="3.28125" fill="#ffe066"/>
<circle cx="2794.53125" cy="223.12499999999997" r="3.28125" fill="#ffb84d"/>
<circle cx="2646.875" cy="242.8125" r="3.28125" fill="#4fe08a"/>
<circle cx="3385.15625" cy="218.75" r="3.28125" fill="#fff"/>
<circle cx="3434.375" cy="240.625" r="3.28125" fill="#fff"/>
<circle cx="3516.40625" cy="216.5625" r="3.28125" fill="#fff"/>
<circle cx="3587.5" cy="196.875" r="3.28125" fill="#fff"/>
<circle cx="3658.59375" cy="216.5625" r="3.28125" fill="#fff"/>
<circle cx="3500" cy="366.40625" r="3.28125" fill="#fff"/>
<circle cx="3587.5" cy="284.375" r="3.28125" fill="#fff"/>
<circle cx="3653.125" cy="366.40625" r="3.28125" fill="#fff"/>
<circle cx="3773.4375" cy="240.625" r="3.28125" fill="#4fe08a"/>
<rect x="-1369.1875" y="218.75" width="4" height="32.8125" fill="#f4ca46"/>
<rect x="-1194.1875" y="218.75" width="4" height="32.8125" fill="#f4ca46"/>
<rect x="-855.125" y="218.75" width="4" height="32.8125" fill="#f4ca46"/>
<rect x="19.875" y="218.75" width="4" height="32.8125" fill="#f4ca46"/>
<rect x="1069.875" y="218.75" width="4" height="32.8125" fill="#f4ca46"/>
<rect x="2294.875" y="218.75" width="4" height="32.8125" fill="#f4ca46"/>
<rect x="3344.875" y="218.75" width="4" height="32.8125" fill="#f4ca46"/>
<rect x="3738.625" y="218.75" width="4" height="32.8125" fill="#f4ca46"/>
<rect x="-45.75" y="235.15625" width="4" height="16.40625" fill="#9be4c7"/>
<rect x="260.5" y="98.4375" width="4" height="16.40625" fill="#9be4c7"/>
<rect x="402.6875" y="114.84375" width="4" height="16.40625" fill="#9be4c7"/>
<rect x="435.5" y="235.15625" width="4" height="16.40625" fill="#9be4c7"/>
<rect x="982.375" y="235.15625" width="4" height="16.40625" fill="#9be4c7"/>
<rect x="1682.375" y="213.28125" width="4" height="16.40625" fill="#9be4c7"/>
<rect x="2229.25" y="235.15625" width="4" height="16.40625" fill="#9be4c7"/>
<rect x="2644.875" y="237.34375" width="4" height="16.40625" fill="#9be4c7"/>
<rect x="2929.25" y="237.34375" width="4" height="16.40625" fill="#9be4c7"/>
<rect x="3279.25" y="235.15625" width="4" height="16.40625" fill="#9be4c7"/>
<rect x="3760.5" y="235.15625" width="4" height="16.40625" fill="#9be4c7"/>
<text x="-1278.21875" y="245.5625" fill="#e9b86e">SUIT</text>
<circle cx="3860.9375" cy="382.8125" r="5.46875" fill="none" stroke="#ff7adf" stroke-width="2"/><text x="3868.9375" y="378.8125" fill="#ff7adf">flush</text>
<circle cx="3937.5" cy="262.5" r="5.46875" fill="none" stroke="#ff7adf" stroke-width="2"/><text x="3945.5" y="258.5" fill="#ff7adf">tension</text>
<circle cx="4014.0625" cy="175" r="5.46875" fill="none" stroke="#ff7adf" stroke-width="2"/><text x="4022.0625" y="171" fill="#ff7adf">align</text>
<line x1="0" y1="0" x2="0" y2="432.03125" stroke="rgba(255,255,255,0.14)"/>
<text x="2" y="429.03125" fill="#9db">128</text>
<line x1="43.75" y1="0" x2="43.75" y2="432.03125" stroke="rgba(255,255,255,0.05)"/>

<line x1="87.5" y1="0" x2="87.5" y2="432.03125" stroke="rgba(255,255,255,0.05)"/>
<text x="89.5" y="429.03125" fill="#9db">136</text>
<line x1="131.25" y1="0" x2="131.25" y2="432.03125" stroke="rgba(255,255,255,0.05)"/>

<line x1="175" y1="0" x2="175" y2="432.03125" stroke="rgba(255,255,255,0.14)"/>
<text x="177" y="429.03125" fill="#9db">144</text>
<line x1="218.75" y1="0" x2="218.75" y2="432.03125" stroke="rgba(255,255,255,0.05)"/>

<line x1="262.5" y1="0" x2="262.5" y2="432.03125" stroke="rgba(255,255,255,0.05)"/>
<text x="264.5" y="429.03125" fill="#9db">152</text>
<line x1="306.25" y1="0" x2="306.25" y2="432.03125" stroke="rgba(255,255,255,0.05)"/>

<line x1="350" y1="0" x2="350" y2="432.03125" stroke="rgba(255,255,255,0.14)"/>
<text x="352" y="429.03125" fill="#9db">160</text>
<line x1="393.75" y1="0" x2="393.75" y2="432.03125" stroke="rgba(255,255,255,0.05)"/>

<line x1="437.5" y1="0" x2="437.5" y2="432.03125" stroke="rgba(255,255,255,0.05)"/>
<text x="439.5" y="429.03125" fill="#9db">168</text>
<line x1="481.25" y1="0" x2="481.25" y2="432.03125" stroke="rgba(255,255,255,0.05)"/>

<line x1="525" y1="0" x2="525" y2="432.03125" stroke="rgba(255,255,255,0.14)"/>
<text x="527" y="429.03125" fill="#9db">176</text>
<line x1="568.75" y1="0" x2="568.75" y2="432.03125" stroke="rgba(255,255,255,0.05)"/>

<line x1="612.5" y1="0" x2="612.5" y2="432.03125" stroke="rgba(255,255,255,0.05)"/>
<text x="614.5" y="429.03125" fill="#9db">184</text>
<line x1="656.25" y1="0" x2="656.25" y2="432.03125" stroke="rgba(255,255,255,0.05)"/>

<line x1="700" y1="0" x2="700" y2="432.03125" stroke="rgba(255,255,255,0.14)"/>
<text x="702" y="429.03125" fill="#9db">192</text>
<line x1="743.75" y1="0" x2="743.75" y2="432.03125" stroke="rgba(255,255,255,0.05)"/>

<line x1="787.5" y1="0" x2="787.5" y2="432.03125" stroke="rgba(255,255,255,0.05)"/>
<text x="789.5" y="429.03125" fill="#9db">200</text>
<line x1="831.25" y1="0" x2="831.25" y2="432.03125" stroke="rgba(255,255,255,0.05)"/>

<line x1="875" y1="0" x2="875" y2="432.03125" stroke="rgba(255,255,255,0.14)"/>
<text x="877" y="429.03125" fill="#9db">208</text>
<line x1="918.75" y1="0" x2="918.75" y2="432.03125" stroke="rgba(255,255,255,0.05)"/>

<line x1="962.5" y1="0" x2="962.5" y2="432.03125" stroke="rgba(255,255,255,0.05)"/>
<text x="964.5" y="429.03125" fill="#9db">216</text>
<line x1="1006.25" y1="0" x2="1006.25" y2="432.03125" stroke="rgba(255,255,255,0.05)"/>

<line x1="1050" y1="0" x2="1050" y2="432.03125" stroke="rgba(255,255,255,0.14)"/>
<text x="1052" y="429.03125" fill="#9db">224</text>
<line x1="1093.75" y1="0" x2="1093.75" y2="432.03125" stroke="rgba(255,255,255,0.05)"/>

<line x1="1137.5" y1="0" x2="1137.5" y2="432.03125" stroke="rgba(255,255,255,0.05)"/>
<text x="1139.5" y="429.03125" fill="#9db">232</text>
<line x1="1181.25" y1="0" x2="1181.25" y2="432.03125" stroke="rgba(255,255,255,0.05)"/>

<line x1="1225" y1="0" x2="1225" y2="432.03125" stroke="rgba(255,255,255,0.14)"/>
<text x="1227" y="429.03125" fill="#9db">240</text>
<line x1="1268.75" y1="0" x2="1268.75" y2="432.03125" stroke="rgba(255,255,255,0.05)"/>

<line x1="1312.5" y1="0" x2="1312.5" y2="432.03125" stroke="rgba(255,255,255,0.05)"/>
<text x="1314.5" y="429.03125" fill="#9db">248</text>
<line x1="1356.25" y1="0" x2="1356.25" y2="432.03125" stroke="rgba(255,255,255,0.05)"/>

<line x1="1400" y1="0" x2="1400" y2="432.03125" stroke="rgba(255,255,255,0.14)"/>
<text x="1402" y="429.03125" fill="#9db">256</text>
<line x1="0" y1="32.8125" x2="1400" y2="32.8125" stroke="rgba(255,255,255,0.07)"/><text x="2" y="30.8125" fill="#9db">y-8</text>
<line x1="0" y1="76.5625" x2="1400" y2="76.5625" stroke="rgba(255,255,255,0.07)"/><text x="2" y="74.5625" fill="#9db">y-4</text>
<line x1="0" y1="120.3125" x2="1400" y2="120.3125" stroke="rgba(255,255,255,0.07)"/><text x="2" y="118.3125" fill="#9db">y0</text>
<line x1="0" y1="164.0625" x2="1400" y2="164.0625" stroke="rgba(255,255,255,0.07)"/><text x="2" y="162.0625" fill="#9db">y4</text>
<line x1="0" y1="207.8125" x2="1400" y2="207.8125" stroke="rgba(255,255,255,0.07)"/><text x="2" y="205.8125" fill="#9db">y8</text>
<line x1="0" y1="251.5625" x2="1400" y2="251.5625" stroke="rgba(255,255,255,0.3)"/><text x="2" y="249.5625" fill="#9db">y12</text>
<line x1="0" y1="295.3125" x2="1400" y2="295.3125" stroke="rgba(255,255,255,0.07)"/><text x="2" y="293.3125" fill="#9db">y16</text>
<line x1="0" y1="339.0625" x2="1400" y2="339.0625" stroke="rgba(255,255,255,0.07)"/><text x="2" y="337.0625" fill="#9db">y20</text>
<line x1="0" y1="382.8125" x2="1400" y2="382.8125" stroke="rgba(255,255,255,0.07)"/><text x="2" y="380.8125" fill="#9db">y24</text>
<line x1="0" y1="426.5625" x2="1400" y2="426.5625" stroke="rgba(255,255,255,0.07)"/><text x="2" y="424.5625" fill="#9db">y28</text>
<text x="-1396" y="14" fill="#b7eae0">Suit dock (0)</text>
<text x="-871" y="14" fill="#b7eae0">Flushing gallery (48)</text>
<text x="4" y="14" fill="#b7eae0">Guide tower (128)</text>
<text x="1054" y="14" fill="#b7eae0">Split reservoir (224)</text>
<text x="2279" y="14" fill="#b7eae0">Cut-path maze (336)</text>
<text x="3329" y="14" fill="#b7eae0">Threading fault (432)</text>
</svg>